<?xml version="1.0" encoding="UTF-8" standalone="no"?>
<!DOCTYPE svg PUBLIC "-//W3C//DTD SVG 1.1//EN" "http://www.w3.org/Graphics/SVG/1.1/DTD/svg11.dtd">
<svg width="100%" height="100%" viewBox="0 0 1280 1280" version="1.1" xmlns="http://www.w3.org/2000/svg" xmlns:xlink="http://www.w3.org/1999/xlink" xml:space="preserve" xmlns:serif="http://www.serif.com/" style="fill-rule:evenodd;clip-rule:evenodd;stroke-linejoin:round;stroke-miterlimit:2;">
    <g transform="matrix(0.898973,0,0,0.898973,391.043,363.358)">
        <g transform="matrix(15.5733,0,0,15.5733,-307.065,-541.016)">
            <rect x="0" y="17" width="35" height="35" style="fill:white;"/>
        </g>
        <g transform="matrix(15.5733,0,0,15.5733,-307.065,-541.016)">
            <rect x="0" y="57" width="35" height="35" style="fill:white;"/>
        </g>
        <g transform="matrix(15.5733,0,0,15.5733,-307.065,-541.016)">
            <rect x="40" y="17" width="35" height="35" style="fill:white;"/>
        </g>
        <g transform="matrix(15.5733,0,0,15.5733,-307.065,-541.016)">
            <path d="M24.668,49L11.738,49C11.634,49 11.582,48.935 11.582,48.805L11.621,21.363C11.621,21.233 11.686,21.168 11.816,21.168L16.27,21.168C16.4,21.168 16.465,21.233 16.465,21.363L16.426,44.078L24.668,44.078C24.798,44.078 24.863,44.143 24.863,44.273L24.863,48.805C24.863,48.935 24.798,49 24.668,49Z" style="fill-rule:nonzero;"/>
        </g>
        <g transform="matrix(15.5733,0,0,15.5733,-307.065,-541.016)">
            <path d="M24.668,88L11.738,88C11.634,88 11.582,87.935 11.582,87.805L11.621,60.363C11.621,60.233 11.686,60.168 11.816,60.168L16.27,60.168C16.4,60.168 16.465,60.233 16.465,60.363L16.426,83.078L24.668,83.078C24.798,83.078 24.863,83.143 24.863,83.273L24.863,87.805C24.863,87.935 24.798,88 24.668,88Z" style="fill-rule:nonzero;"/>
        </g>
        <g transform="matrix(15.5733,0,0,15.5733,-307.065,-541.016)">
            <path d="M58.918,49L54.074,49C53.957,49 53.892,48.935 53.879,48.805L48.352,21.324C48.326,21.22 48.378,21.168 48.508,21.168L53.039,21.168C53.143,21.168 53.208,21.22 53.234,21.324L56.516,39.645L59.719,21.324C59.745,21.22 59.81,21.168 59.914,21.168L64.387,21.168C64.53,21.168 64.582,21.22 64.543,21.324L59.113,48.805C59.1,48.935 59.035,49 58.918,49Z" style="fill-rule:nonzero;"/>
        </g>
    </g>
</svg>
